<svg width="18" height="18" viewBox="0 0 18 18" fill="none" xmlns="http://www.w3.org/2000/svg">
<path d="M5 13H4V16.5H5V13Z" fill="#B6BECA"/>
<path d="M14 13H13V16.5H14V13Z" fill="#B6BECA"/>
<path d="M11 13H10V16.5H11V13Z" fill="#B6BECA"/>
<path d="M8 13H7V16.5H8V13Z" fill="#B6BECA"/>
<path d="M5 1.5H4V5H5V1.5Z" fill="#B6BECA"/>
<path d="M14 1.5H13V5H14V1.5Z" fill="#B6BECA"/>
<path d="M11 1.5H10V5H11V1.5Z" fill="#B6BECA"/>
<path d="M8 1.5H7V5H8V1.5Z" fill="#B6BECA"/>
<path fill-rule="evenodd" clip-rule="evenodd" d="M2 4C0.895416 4 0 4.89545 0 6V12.125C0 13.2296 0.895416 14.125 2 14.125H16C17.1046 14.125 18 13.2296 18 12.125V6C18 4.89545 17.1046 4 16 4H2ZM3.22 5.22998C2.11542 5.22998 1.22 6.12543 1.22 7.22998V10.78C1.22 11.8845 2.11545 12.78 3.22 12.78H14.77C15.8746 12.78 16.77 11.8845 16.77 10.78V7.22998C16.77 6.12543 15.8746 5.22998 14.77 5.22998H3.22Z" fill="#B6BECA"/>
</svg>
