<svg width="17" height="18" viewBox="0 0 17 18" fill="none" xmlns="http://www.w3.org/2000/svg">
<rect width="17" height="18" fill="#1F1919"/>
<rect x="16" y="12" width="1" height="5" fill="#D9D9D9"/>
<rect y="12" width="1" height="5" fill="#D9D9D9"/>
<rect x="8" width="1" height="13" fill="#D9D9D9"/>
<rect x="7" y="12" width="1" height="1" fill="#D9D9D9"/>
<rect x="6" y="11" width="1" height="1" fill="#D9D9D9"/>
<rect x="5" y="10" width="1" height="1" fill="#D9D9D9"/>
<rect x="4" y="9" width="1" height="1" fill="#D9D9D9"/>
<rect x="3" y="8" width="1" height="1" fill="#D9D9D9"/>
<rect x="8" y="13" width="1" height="1" fill="#D9D9D9"/>
<rect x="9" y="12" width="1" height="1" fill="#D9D9D9"/>
<rect x="10" y="11" width="1" height="1" fill="#D9D9D9"/>
<rect x="11" y="10" width="1" height="1" fill="#D9D9D9"/>
<rect x="12" y="9" width="1" height="1" fill="#D9D9D9"/>
<rect x="13" y="8" width="1" height="1" fill="#D9D9D9"/>
<rect x="1" y="17" width="15" height="1" fill="#D9D9D9"/>
</svg>
