<svg width="16" height="16" viewBox="0 0 16 16" fill="none" xmlns="http://www.w3.org/2000/svg">
<path d="M4 1.5H3V4.5H4V1.5Z" fill="black"/>
<path d="M13 1.5H12V4.5H13V1.5Z" fill="black"/>
<path d="M10 1.5H9V4.5H10V1.5Z" fill="black"/>
<path d="M7 1.5H6V4.5H7V1.5Z" fill="black"/>
<path d="M4 12.5H3V15.5H4V12.5Z" fill="black"/>
<path d="M13 12.5H12V15.5H13V12.5Z" fill="black"/>
<path d="M10 12.5H9V15.5H10V12.5Z" fill="black"/>
<path d="M7 12.5H6V15.5H7V12.5Z" fill="black"/>
<path fill-rule="evenodd" clip-rule="evenodd" d="M2 4C0.895431 4 0 4.89543 0 6V11C0 12.1046 0.895431 13 2 13H14C15.1046 13 16 12.1046 16 11V6C16 4.89543 15.1046 4 14 4H2ZM3 5C1.89543 5 1 5.89543 1 7V10C1 11.1046 1.89543 12 3 12H13C14.1046 12 15 11.1046 15 10V7C15 5.89543 14.1046 5 13 5H3Z" fill="black"/>
</svg>
