<svg width="16" height="16" viewBox="0 0 16 16" fill="none" xmlns="http://www.w3.org/2000/svg">
<path d="M16 4.59062V4C16 2.89531 15.2042 2 14.2222 2H1.77778C0.795833 2 0 2.89531 0 4V4.59188C0.516667 4.79688 0.888889 5.34688 0.888889 6C0.888889 6.65312 0.516667 7.20313 0 7.40938V13C0 13.5522 0.398056 14 0.888889 14H15.1111C15.6019 14 16 13.5522 16 13V7.40938C15.4833 7.20313 15.1111 6.65312 15.1111 6C15.1111 5.34688 15.4833 4.79687 16 4.59062ZM15.1111 13H13.7778V12.5C13.7778 12.2239 13.5788 12 13.3333 12C13.0879 12 12.8889 12.2239 12.8889 12.5V13H10.2222V12.5C10.2222 12.2239 10.0233 12 9.77778 12C9.53233 12 9.33333 12.2239 9.33333 12.5V13H6.66667V12.5C6.66667 12.225 6.46667 12 6.22222 12C5.97678 12 5.77778 12.2239 5.77778 12.5V13H3.11111V12.5C3.11111 12.225 2.91111 12 2.66667 12C2.42122 12 2.22222 12.2239 2.22222 12.5V13H0.888889V10H15.1111V13ZM15.1111 4C14.5625 4.46375 14.2222 5.20438 14.2222 6C14.2222 6.79562 14.5625 7.52969 15.1111 7.99344V9H0.888889V7.99375C1.4375 7.52813 1.77778 6.79688 1.77778 6C1.77778 5.20312 1.4375 4.47187 0.888889 4.00625C0.888889 3.45625 1.28778 3 1.77778 3H14.2222C14.7111 3 15.1111 3.45 15.1111 4ZM4.44444 4C4.2 4 4 4.225 4 4.5V7.5C4 7.775 4.2 8 4.44444 8C4.68889 8 4.88889 7.77637 4.88889 7.5V4.5C4.88889 4.225 4.68889 4 4.44444 4ZM8 4C7.75556 4 7.55556 4.225 7.55556 4.5V7.5C7.55556 7.775 7.75556 8 8 8C8.24444 8 8.44444 7.77637 8.44444 7.5V4.5C8.44444 4.225 8.24444 4 8 4ZM11.5556 4C11.3099 4 11.1111 4.22363 11.1111 4.5V7.5C11.1111 7.775 11.3111 8 11.5556 8C11.8 8 12 7.77637 12 7.5V4.5C12 4.225 11.8 4 11.5556 4Z" fill="#B6BECA"/>
</svg>
