<svg width="16" height="14" viewBox="0 0 16 14" fill="none" xmlns="http://www.w3.org/2000/svg">
<path d="M8 11C8.14621 11 8.29243 10.9512 8.40393 10.8535L13.5468 6.3535C13.77 6.15819 13.77 5.84163 13.5468 5.64663C13.3236 5.45163 12.9618 5.45131 12.7389 5.64663L8.57143 9.29375V0.5C8.57143 0.223625 8.31429 0 8 0C7.68571 0 7.42857 0.223625 7.42857 0.5V9.29375L3.26107 5.64688C3.03786 5.45156 2.67607 5.45156 2.45321 5.64688C2.23036 5.84219 2.23 6.15875 2.45321 6.35375L7.59607 10.8538C7.70714 10.95 7.85357 11 8 11ZM16 11.5V8.5C16 8.22363 15.7444 8 15.4286 8C15.1127 8 14.8571 8.225 14.8571 8.5V11.5C14.8571 12.3272 14.0882 13 13.1429 13H2.85714C1.91179 13 1.14286 12.3281 1.14286 11.5V8.5C1.14286 8.225 0.887143 8 0.571429 8C0.255714 8 0 8.225 0 8.5V11.5C0 12.8781 1.28143 14 2.85714 14H13.1429C14.7179 14 16 12.8781 16 11.5Z" fill="#B6BECA"/>
</svg>
