<svg width="16" height="14" viewBox="0 0 16 14" fill="none" xmlns="http://www.w3.org/2000/svg">
<path d="M8.5 0.52381C8.5 0.234518 8.27614 0 8 0C7.72386 0 7.5 0.234518 7.5 0.52381V10.4762C7.5 10.7655 7.72386 11 8 11C8.27614 11 8.5 10.7655 8.5 10.4762V0.52381Z" fill="#B6BECA"/>
<path fill-rule="evenodd" clip-rule="evenodd" d="M15 12C15 12.5523 14.5523 13 14 13H2C1.44772 13 1 12.5523 1 12H0C0 13.1046 0.895431 14 2 14H14C15.1046 14 16 13.1046 16 12H15Z" fill="#B6BECA"/>
<path fill-rule="evenodd" clip-rule="evenodd" d="M0.5 9C0.223858 9 0 9.22386 0 9.5V11V11.5V12H0.5H1V11.5V11V9.5C1 9.22386 0.776142 9 0.5 9Z" fill="#B6BECA"/>
<path fill-rule="evenodd" clip-rule="evenodd" d="M15.5 9C15.2239 9 15 9.22386 15 9.5V11V11.5V12H15.5H16V11.5V11V9.5C16 9.22386 15.7761 9 15.5 9Z" fill="#B6BECA"/>
<rect x="8" y="10" width="1" height="1" fill="#B6BECA"/>
<rect x="9" y="9" width="1" height="1" fill="#B6BECA"/>
<rect x="10" y="8" width="1" height="1" fill="#B6BECA"/>
<rect x="11" y="7" width="1" height="1" fill="#B6BECA"/>
<rect x="12" y="6" width="1" height="1" fill="#B6BECA"/>
<rect x="7" y="10" width="1" height="1" fill="#B6BECA"/>
<rect x="6" y="9" width="1" height="1" fill="#B6BECA"/>
<rect x="5" y="8" width="1" height="1" fill="#B6BECA"/>
<rect x="4" y="7" width="1" height="1" fill="#B6BECA"/>
<rect x="3" y="6" width="1" height="1" fill="#B6BECA"/>
<rect x="7.5" y="10.5" width="1" height="1" fill="#B6BECA"/>
</svg>
