<svg width="18" height="18" viewBox="0 0 18 18" fill="none" xmlns="http://www.w3.org/2000/svg">
<path d="M5 13H4V16.5H5V13Z" fill="#B6BECA"/>
<path d="M14 13H13V16.5H14V13Z" fill="#B6BECA"/>
<path d="M11 13H10V16.5H11V13Z" fill="#B6BECA"/>
<path d="M8 13H7V16.5H8V13Z" fill="#B6BECA"/>
<path d="M5 1.5H4V5H5V1.5Z" fill="#B6BECA"/>
<path d="M14 1.5H13V5H14V1.5Z" fill="#B6BECA"/>
<path d="M11 1.5H10V5H11V1.5Z" fill="#B6BECA"/>
<path d="M8 1.5H7V5H8V1.5Z" fill="#B6BECA"/>
<path fill-rule="evenodd" clip-rule="evenodd" d="M3 4C1.89543 4 1 4.89543 1 6V12.125C1 13.2296 1.89543 14.125 3 14.125H15C16.1046 14.125 17 13.2296 17 12.125V6C17 4.89543 16.1046 4 15 4H3ZM4.08445 5.22998C2.97988 5.22998 2.08445 6.12541 2.08445 7.22998V10.78C2.08445 11.8846 2.97987 12.78 4.08444 12.78H13.9067C15.0112 12.78 15.9067 11.8846 15.9067 10.78V7.22998C15.9067 6.12541 15.0112 5.22998 13.9067 5.22998H4.08445Z" fill="#B6BECA"/>
</svg>
